<?xml version="1.0" standalone="no"?>
<!DOCTYPE svg PUBLIC "-//W3C//DTD SVG 20010904//EN"
 "http://www.w3.org/TR/2001/REC-SVG-20010904/DTD/svg10.dtd">
<svg version="1.0" xmlns="http://www.w3.org/2000/svg"
 width="200.000000pt" height="200.000000pt" viewBox="0 0 200.000000 200.000000"
 preserveAspectRatio="xMidYMid meet">

<g transform="translate(0.000000,200.000000) scale(0.100000,-0.100000)"
fill="#000" stroke="orange" >
<path d="M459 1644 c-10 -12 -10 -27 -1 -72 12 -64 89 -466 94 -497 2 -11 -25
-70 -64 -137 -37 -65 -68 -122 -68 -127 0 -5 25 -24 56 -41 l56 -32 -27 -18
-26 -17 57 -33 58 -32 -25 -19 c-27 -22 -31 -17 61 -70 25 -14 115 -67 201
-118 86 -50 163 -91 172 -91 13 0 440 240 457 257 3 2 -5 13 -18 23 l-23 19
48 27 c26 15 50 29 53 32 3 2 -5 12 -18 22 l-22 18 55 32 c30 17 55 34 55 37
0 3 -32 60 -71 128 l-70 123 50 264 c60 309 61 325 26 334 -14 3 -32 4 -40 0
-8 -3 -111 -77 -229 -166 -195 -145 -219 -160 -255 -160 -37 0 -61 15 -261
165 -222 166 -253 182 -281 149z m291 -264 l173 -130 79 0 78 0 175 131 c97
73 178 129 182 125 6 -6 -54 -341 -64 -359 -14 -24 -23 17 -23 109 0 118 -11
132 -49 63 -30 -52 -31 -121 -3 -175 11 -21 54 -97 96 -169 42 -71 76 -132 76
-135 0 -4 -39 -28 -87 -55 -78 -44 -84 -50 -65 -58 12 -6 22 -15 22 -21 0 -12
-148 -101 -156 -94 -2 3 -16 44 -30 92 -28 95 -28 96 27 125 31 17 60 63 47
76 -3 3 -31 -4 -62 -16 -80 -29 -85 -44 -58 -172 26 -120 27 -158 7 -196 -24
-47 -60 -51 -49 -5 7 27 -19 44 -66 44 -45 0 -72 -17 -65 -41 15 -46 -26 -45
-50 2 -20 38 -19 84 6 193 12 52 19 105 15 119 -6 27 -84 70 -117 65 -16 -3
-17 -6 -6 -27 6 -13 29 -33 50 -44 45 -23 46 -33 12 -144 l-25 -82 -78 45
c-96 57 -99 60 -73 74 12 6 19 15 16 20 -3 4 -39 27 -80 49 -41 23 -75 45 -75
50 0 5 39 76 87 157 99 171 118 220 103 274 -10 39 -48 95 -58 86 -3 -3 -5
-52 -6 -108 -1 -84 -4 -103 -17 -106 -12 -2 -21 29 -47 165 -34 179 -37 203
-24 203 5 0 87 -58 182 -130z"/>
</g>
</svg>
